<svg xmlns="http://www.w3.org/2000/svg" xmlns:xlink="http://www.w3.org/1999/xlink" version="1.1" id="Calque_1" x="0px" y="0px" height="100%" viewBox="0 0 
1543.424 260.987" enable-background="new 0 0 1543.424 260.987" 
xml:space="preserve">
<polygon fill="#003A70" points="219.733,44.926 134.615,213.35 
90.247,213.35 6.035,44.926 38.634,44.926 111.075,189.807   113.79,187.993 
186.23,44.926 "/>
<rect x="258.667" y="44.923" fill="#003A70" width="28.975" 
height="168.424"/>
<g>
	<defs>
		<rect id="SVGID_1_" x="-188.129" y="-408.597" width="1920" 
height="1080"/>
	</defs>
	<clipPath id="SVGID_2_">
		<use xlink:href="#SVGID_1_" overflow="visible"/>
	</clipPath>
	<path clip-path="url(#SVGID_2_)" fill="#003A70" 
d="M521.262,164.451c0,19.016-4.528,31.694-14.487,39.844   
c-8.151,6.338-22.638,9.959-40.747,9.959h-84.212c-37.124,0-55.237-16.3-55.237-47.989h28.978c0,14.486,10.865,21.73,31.69,21.73   
h72.44c9.963,0,17.207-1.813,22.637-4.528c6.341-3.621,9.963-9.959,9.963-19.922c0-10.864-5.434-18.109-17.207-21.73   
c-7.243-2.716-17.202-3.622-30.787-3.622c-5.43,0-13.581,0-24.446,0.906c-10.865,0-19.016,0.906-24.45,0.906   
c-21.731,0-37.124-2.719-47.989-8.149c-14.488-7.244-22.638-20.828-22.638-39.843c0-17.203,5.43-29.881,15.393-37.125   
c9.053-6.337,22.638-9.959,40.746-9.959h80.59c39.841,0,59.763,16.296,59.763,47.99h-29.881c0-14.488-10.866-21.731-31.694-21.731   
h-76.062c-17.203,0-26.259,7.243-26.259,21.731c0,15.393,16.3,22.637,47.994,22.637c4.524,0,12.674,0,22.637-0.906   
c9.959-0.907,17.202-0.907,22.637-0.907c21.732,0,38.031,2.719,49.799,9.057C514.018,130.949,521.262,144.529,521.262,164.451"/>
	<path clip-path="url(#SVGID_2_)" fill="#003A70" 
d="M697.833,139.1H583.74v-24.45h114.093V139.1z M759.407,163.546   
c0,21.731-7.243,35.315-20.828,41.653c-9.959,5.435-30.783,7.243-62.478,7.243h-37.124c-23.544,0-40.746-1.809-51.615-6.336   
c-11.768-4.529-19.918-12.68-24.446-24.451c-3.622-10.865-6.338-28.068-6.338-51.611c0-25.353,1.809-43.466,5.432-54.331   
c3.621-12.675,11.771-21.731,23.543-26.259c10.866-2.716,28.974-4.529,53.424-4.529h37.124c29.881,0,50.709,4.529,64.29,12.679   
c11.773,8.15,18.11,19.921,18.11,37.124h-27.165c0-10.865-5.432-18.109-15.394-20.824c-6.338-1.813-19.919-2.719-40.747-2.719   
h-34.409c-22.637,0-38.03,1.812-44.367,6.34c-8.151,5.432-12.679,18.109-12.679,38.031v24.447c0,22.637,3.622,36.222,11.771,42.559   
c6.341,4.528,20.829,7.244,44.369,7.244h35.315c20.828,0,35.316-0.905,40.747-2.716c9.962-2.716,15.394-9.963,15.394-21.73h28.071   
V163.546z"/>
	<path clip-path="url(#SVGID_2_)" fill="#003A70" 
d="M962.236,138.191v-16.296c0-16.3-1.81-27.166-4.524-34.409   
c-3.622-7.244-9.057-10.869-17.207-12.679c-6.337-1.812-17.202-1.812-34.408-1.812h-28.976c-23.543,0-38.03,2.719-44.367,7.247   
c-7.247,6.337-10.869,19.918-10.869,42.556v16.299c0,21.731,3.622,35.315,10.869,41.653c6.337,4.528,19.918,6.337,43.462,6.337   
h28.974c16.301,0,28.072-0.902,33.507-1.809c8.146-1.813,14.487-6.341,17.203-12.679   
C960.426,165.357,962.236,153.585,962.236,138.191 
M990.307,139.098c0,22.638-2.715,38.938-8.149,49.803   
c-5.431,10.866-14.487,17.203-27.166,20.825c-9.959,2.719-26.259,4.528-49.803,4.528h-30.783c-23.544,0-40.75-1.81-51.615-6.338   
c-11.771-4.528-19.922-12.678-24.446-24.45c-3.622-10.865-6.341-28.067-6.341-51.611c0-25.353,1.813-42.559,5.435-53.424   
c3.621-12.679,11.771-21.731,23.543-26.26c10.866-4.528,28.974-7.243,53.425-7.243h30.783c26.264,0,45.278,2.715,57.047,8.149   
c11.771,5.432,19.016,15.394,22.637,28.975C989.401,92.011,990.307,111.026,990.307,139.098"/>
	<rect x="1089.01" y="5.842" clip-path="url(#SVGID_2_)" 
fill="#003A70" width="18.109" height="251.124"/>
	<path clip-path="url(#SVGID_2_)" fill="#0099FF" 
d="M1246.736,28.625c3.69,3.076,5.536,7.308,5.536,12.7   
c0,5.393-1.846,9.627-5.536,12.7c-3.688,3.076-8.752,4.613-15.183,4.613h-12.276v15.041h-7.094V24.012h19.37   
C1237.984,24.012,1243.047,25.55,1246.736,28.625 
M1241.627,49.59c2.366-1.915,3.548-4.67,3.548-8.266   
c0-3.593-1.182-6.349-3.548-8.265c-2.365-1.917-5.794-2.874-10.287-2.874h-12.063v22.279h12.063   
C1235.833,52.464,1239.262,51.506,1241.627,49.59"/>
	<path clip-path="url(#SVGID_2_)" fill="#0099FF" 
d="M1326.663,72.507c-3.478-1.158-6.209-2.66-8.195-4.505l2.625-5.534   
c1.891,1.703,4.315,3.086,7.271,4.15c2.957,1.066,5.997,1.597,9.118,1.597c4.116,0,7.189-0.697,9.224-2.094   
c2.033-1.394,3.051-3.25,3.051-5.569c0-1.703-0.556-3.087-1.667-4.15c-1.113-1.064-2.483-1.881-4.115-2.448   
c-1.632-0.568-3.938-1.206-6.918-1.916c-3.736-0.897-6.752-1.796-9.047-2.696c-2.294-0.897-4.257-2.281-5.889-4.151   
c-1.632-1.868-2.447-4.387-2.447-7.556c0-2.649,0.697-5.038,2.093-7.166c1.395-2.129,3.513-3.832,6.35-5.109   
c2.838-1.276,6.36-1.916,10.571-1.916c2.934,0,5.818,0.38,8.657,1.135c2.838,0.758,5.273,1.846,7.309,3.264l-2.343,5.677   
c-2.082-1.325-4.304-2.329-6.669-3.016c-2.365-0.685-4.683-1.029-6.954-1.029c-4.021,0-7.036,0.734-9.046,2.2   
c-2.011,1.466-3.015,3.359-3.015,5.676c0,1.703,0.567,3.087,1.703,4.15c1.135,1.066,2.541,1.893,4.222,2.484   
c1.677,0.592,3.961,1.218,6.847,1.88c3.735,0.899,6.74,1.799,9.01,2.696c2.271,0.899,4.222,2.27,5.854,4.116   
c1.633,1.844,2.449,4.328,2.449,7.45c0,2.601-0.711,4.979-2.129,7.131c-1.42,2.152-3.572,3.855-6.457,5.108   
c-2.886,1.253-6.433,1.881-10.643,1.881C1333.746,74.248,1330.138,73.668,1326.663,72.507"/>
	<path clip-path="url(#SVGID_2_)" fill="#0099FF" 
d="M1288.533,27.13c-13.665,0-24.742,11.077-24.742,24.742v14.513   
c0,0.051,0.064,0.075,0.091,0.031c3.859-6.517,12.729-20.218,22.033-25.725c0.838-0.493,1.941-0.146,2.32,0.794   
c0.308,0.764-0.089,1.623-0.793,2.049c-1.78,1.079-4.375,3.203-5.187,4.015c-4.887,4.269-8.042,8.841-11.46,13.995   
c-2.308,3.479-4.423,6.982-5.388,8.678c-0.02,0.033,0.008,0.071,0.046,0.071h16.804c13.64,0,24.696-11.057,24.696-24.696V27.18   
c0-0.028-0.022-0.05-0.05-0.05H1288.533z"/>
	<rect x="1367.068" y="24.012" clip-path="url(#SVGID_2_)" 
fill="#0099FF" width="7.095" height="49.666"/>
	<polygon clip-path="url(#SVGID_2_)" fill="#0099FF" 
points="1398.925,30.185 1381.897,30.185 1381.897,24.013 1422.979,24.013    
1422.979,30.185 1405.951,30.185 1405.951,73.679 1398.925,73.679  "/>
	<rect x="1430.71" y="24.012" clip-path="url(#SVGID_2_)" 
fill="#0099FF" width="7.095" height="49.666"/>
	<polygon clip-path="url(#SVGID_2_)" fill="#0099FF" 
points="1495.349,24.013 1473.568,73.679 1466.542,73.679 1444.689,24.013    
1452.352,24.013 1470.232,64.81 1488.254,24.013  "/>
	<polygon clip-path="url(#SVGID_2_)" fill="#0099FF" 
points="1537.707,67.506 1537.707,73.678 1501.663,73.678 1501.663,24.012    
1536.712,24.012 1536.712,30.186 1508.757,30.186 1508.757,45.44 
1533.663,45.44 1533.663,51.471 1508.757,51.471 1508.757,67.506     "/>
	<path clip-path="url(#SVGID_2_)" fill="#003A70" 
d="M1212.887,105.859h20.885c5.238,0,9.887,1.039,13.946,3.115   
c4.059,2.078,7.209,4.992,9.452,8.744c2.241,3.752,3.362,8.06,3.362,12.92c0,4.862-1.121,9.168-3.362,12.921   
c-2.243,3.752-5.394,6.667-9.452,8.743c-4.06,2.077-8.708,3.115-13.946,3.115h-20.885V105.859z 
M1233.347,149.258   
c4.012,0,7.54-0.779,10.584-2.337c3.045-1.558,5.392-3.739,7.045-6.548c1.651-2.809,2.477-6.054,2.477-9.735   
c0-3.681-0.825-6.925-2.477-9.734c-1.653-2.808-4-4.992-7.045-6.549c-3.044-1.557-6.572-2.336-10.584-2.336h-13.381v37.239   
H1233.347z"/>
	<rect x="1278.515" y="105.859" clip-path="url(#SVGID_2_)" 
fill="#003A70" width="7.079" height="49.558"/>
	<path clip-path="url(#SVGID_2_)" fill="#003A70" 
d="M1341.948,130.354h6.796v19.328c-2.455,2.029-5.31,3.587-8.567,4.673   
c-3.256,1.084-6.654,1.627-10.194,1.627c-5.003,0-9.51-1.097-13.521-3.292c-4.013-2.194-7.163-5.214-9.451-9.062   
c-2.291-3.846-3.434-8.176-3.434-12.991c0-4.813,1.143-9.155,3.434-13.025c2.288-3.871,5.451-6.891,9.487-9.063   
c4.035-2.171,8.577-3.256,13.628-3.256c3.964,0,7.563,0.649,10.796,1.946c3.231,1.3,5.982,3.198,8.248,5.7l-4.39,4.389   
c-3.964-3.823-8.756-5.734-14.372-5.734c-3.776,0-7.162,0.814-10.158,2.442c-2.998,1.628-5.346,3.894-7.044,6.796   
c-1.7,2.903-2.55,6.171-2.55,9.805c0,3.588,0.85,6.833,2.55,9.736c1.698,2.9,4.046,5.179,7.044,6.83   
c2.996,1.653,6.359,2.479,10.088,2.479c4.436,0,8.307-1.063,11.611-3.187V130.354z"/>
	<rect x="1369.416" y="105.859" clip-path="url(#SVGID_2_)" 
fill="#003A70" width="7.079" height="49.558"/>
	<polygon clip-path="url(#SVGID_2_)" fill="#003A70" 
points="1408.352,112.019 1391.362,112.019 1391.362,105.859 
1432.352,105.859    1432.352,112.019 1415.361,112.019 1415.361,155.417 
1408.352,155.417  "/>
	<path clip-path="url(#SVGID_2_)" fill="#003A70" 
d="M1476.317,143.028h-26.336l-5.452,12.389h-7.293l22.444-49.558h7.009   
l22.513,49.558h-7.434L1476.317,143.028z 
M1473.839,137.363l-10.69-24.283l-10.69,24.283H1473.839z"/>
	<polygon clip-path="url(#SVGID_2_)" fill="#003A70" 
points="1503.715,105.859 1510.794,105.859 1510.794,149.258 
1537.625,149.258    1537.625,155.417 1503.715,155.417  "/>
	<polygon clip-path="url(#SVGID_2_)" fill="#003A70" 
points="1258.833,238.796 1258.763,202.691 1240.851,232.778 
1237.595,232.778    1219.683,202.902 1219.683,238.796 1212.887,238.796 
1212.887,189.238 1218.693,189.238 1239.365,224.07 1259.753,189.238    
1265.559,189.238 1265.63,238.796  "/>
	<path clip-path="url(#SVGID_2_)" fill="#003A70" 
d="M1316.389,226.407h-26.336l-5.452,12.389h-7.291l22.442-49.558h7.009   
l22.513,49.558h-7.434L1316.389,226.407z 
M1313.912,220.743l-10.69-24.283l-10.69,24.283H1313.912z"/>
	<polygon clip-path="url(#SVGID_2_)" fill="#003A70" 
points="1357.097,216.779 1348.035,225.982 1348.035,238.796 
1340.955,238.796    1340.955,189.238 1348.035,189.238 1348.035,216.92 
1374.937,189.238 1383.008,189.238 1361.84,211.539 1384.353,238.796    
1376.07,238.796  "/>
	<polygon clip-path="url(#SVGID_2_)" fill="#003A70" 
points="1432.14,232.638 1432.14,238.796 1396.176,238.796 1396.176,189.238    
1431.15,189.238 1431.15,195.398 1403.255,195.398 1403.255,210.619 
1428.105,210.619 1428.105,216.637 1403.255,216.637    1403.255,232.638  
"/>
	<path clip-path="url(#SVGID_2_)" fill="#003A70" 
d="M1481.061,238.796l-10.69-15.221c-1.322,0.095-2.361,0.142-3.115,0.142h-12.247   
v15.079h-7.08v-49.558h19.327c6.418,0,11.469,1.536,15.15,4.603c3.681,3.068,5.521,7.292,5.521,12.673   
c0,3.823-0.944,7.079-2.831,9.77c-1.888,2.69-4.578,4.649-8.071,5.876l11.752,16.637H1481.061z 
M1477.309,214.797   
c2.358-1.936,3.539-4.696,3.539-8.283s-1.181-6.337-3.539-8.248c-2.361-1.912-5.783-2.866-10.267-2.866h-12.034v22.3h12.034   
C1471.526,217.699,1474.948,216.731,1477.309,214.797"/>
	<path clip-path="url(#SVGID_2_)" fill="#003A70" 
d="M1507.36,237.628c-3.468-1.156-6.194-2.655-8.176-4.496l2.619-5.521   
c1.887,1.7,4.306,3.08,7.257,4.143c2.947,1.063,5.982,1.592,9.097,1.592c4.105,0,7.174-0.695,9.204-2.088   
c2.028-1.393,3.044-3.245,3.044-5.558c0-1.7-0.556-3.079-1.664-4.143c-1.108-1.062-2.479-1.875-4.106-2.442   
c-1.629-0.565-3.929-1.202-6.901-1.911c-3.729-0.896-6.739-1.792-9.027-2.689c-2.29-0.896-4.248-2.277-5.875-4.142   
c-1.629-1.864-2.442-4.377-2.442-7.541c0-2.641,0.695-5.025,2.087-7.15c1.393-2.123,3.505-3.821,6.337-5.097   
c2.832-1.274,6.348-1.911,10.548-1.911c2.927,0,5.806,0.379,8.638,1.133c2.832,0.755,5.262,1.841,7.292,3.256l-2.337,5.664   
c-2.077-1.32-4.295-2.324-6.654-3.009c-2.36-0.684-4.673-1.026-6.938-1.026c-4.011,0-7.021,0.732-9.025,2.194   
c-2.007,1.464-3.01,3.352-3.01,5.664c0,1.699,0.567,3.08,1.7,4.143c1.133,1.061,2.536,1.887,4.212,2.477   
c1.675,0.592,3.953,1.216,6.831,1.877c3.729,0.896,6.727,1.794,8.992,2.689c2.266,0.897,4.212,2.266,5.841,4.106   
c1.627,1.841,2.442,4.318,2.442,7.434c0,2.597-0.709,4.968-2.125,7.115c-1.415,2.147-3.563,3.847-6.442,5.097   
c-2.88,1.251-6.419,1.876-10.619,1.876C1514.428,239.362,1510.83,238.785,1507.36,237.628"/>
</g>
</svg>
